<svg width="480" height="480" xmlns="http://www.w3.org/2000/svg" xmlns:xlink="http://www.w3.org/1999/xlink"><defs><pattern id="gridpattern" patternUnits="userSpaceOnUse" width="100" height="100"><image id="svg_1" width="100" height="100"/></pattern><symbol id="svg_13" viewBox="-411 287.3 21 21" xmlns="http://www.w3.org/2000/svg" xmlns:xlink="http://www.w3.org/1999/xlink"><style>.st0{enable-background:new}.st1{fill:#becbcf}</style><g id="svg_10"><g id="svg_11"><g id="svg_12"><g id="svg_2" class="st0"><path id="svg_3" class="st1" d="M-392.1 304.5c0 1.1-.3 1.9-1 2.5-.7.6-1.5.9-2.6.9h-11.7c-1.1 0-1.9-.3-2.6-.9-.7-.6-1-1.5-1-2.5v-1.4c0-.5.1-.9.2-1.5s.2-1 .4-1.5c.1-.4.3-.9.6-1.3.2-.4.5-.8.8-1.1.3-.3.7-.5 1.1-.7.5-.2.9-.3 1.5-.3.1 0 .3.1.6.3.3.2.6.4 1 .6.4.2.9.5 1.4.6.6.2 1.2.3 1.8.3s1.2-.1 1.8-.3c.6-.2 1.1-.4 1.4-.6.4-.2.7-.5 1-.6.3-.2.5-.3.6-.3.5 0 1 .1 1.5.3.5.2.8.4 1.1.7.3.3.6.7.8 1.1.2.4.4.9.6 1.3s.3.9.4 1.5.2 1 .2 1.5.1 1 .1 1.4zm-5.8-15.6c1 1 1.5 2.2 1.5 3.6s-.5 2.6-1.5 3.6-2.2 1.5-3.6 1.5-2.6-.5-3.6-1.5-1.5-2.2-1.5-3.6.5-2.6 1.5-3.6 2.2-1.5 3.6-1.5c1.3 0 2.6.5 3.6 1.5z"/></g></g></g></g></symbol><pattern height="100" width="100" patternUnits="userSpaceOnUse" id="gridpattern"><image height="100" width="100" id="svg_4"/></pattern><pattern id="gridpattern" patternUnits="userSpaceOnUse" width="100" height="100"><image id="svg_5" width="100" height="100"/></pattern><pattern height="100" width="100" patternUnits="userSpaceOnUse" id="gridpattern"><image height="100" width="100"/></pattern></defs><title>Layer 1</title><use id="svg_14" xlink:href="#svg_13" transform="matrix(.2431 0 0 .2431 141.877 229.733)" y="-201.089" x="192.659"/></svg>